HIERARCHY
ROOT hip
{
  OFFSET 0 0 0
  CHANNELS 6 Xposition Yposition Zposition Zrotation Yrotation Xrotation
  JOINT abdomen
  {
    OFFSET 0 20.6881 -0.73152
    CHANNELS 3 Zrotation Xrotation Yrotation
    JOINT chest
    {
      OFFSET 0 11.7043 -0.48768
      CHANNELS 3 Zrotation Xrotation Yrotation
      JOINT neck
      {
        OFFSET 0 22.1894 -2.19456
        CHANNELS 3 Zrotation Xrotation Yrotation
        JOINT head
        {
          OFFSET -0.24384 7.07133 1.2192
          CHANNELS 3 Zrotation Xrotation Yrotation
          JOINT leftEye
          {
            OFFSET 4.14528 8.04674 8.04672
            CHANNELS 3 Zrotation Xrotation Yrotation
            End Site
            {
              OFFSET 1 0 0
            }
          }
          JOINT rightEye
          {
            OFFSET -3.6576 8.04674 8.04672
            CHANNELS 3 Zrotation Xrotation Yrotation
            End Site
            {
              OFFSET 1 0 0
            }
          }
        }
      }
      JOINT rCollar
      {
        OFFSET -2.68224 19.2634 -4.8768
        CHANNELS 3 Zrotation Xrotation Yrotation
        JOINT rShldr
        {
          OFFSET -8.77824 -1.95073 1.46304
          CHANNELS 3 Zrotation Xrotation Yrotation
          JOINT rForeArm
          {
            OFFSET -28.1742 -1.7115 0.48768
            CHANNELS 3 Zrotation Xrotation Yrotation
            JOINT rHand
            {
              OFFSET -22.5879 0.773209 7.07136
              CHANNELS 3 Zrotation Xrotation Yrotation
              JOINT rThumb1
              {
                OFFSET -1.2192 -0.487915 3.41376
                CHANNELS 3 Zrotation Xrotation Yrotation
                JOINT rThumb2
                {
                  OFFSET -3.37035 -0.52449 3.41376
                  CHANNELS 3 Zrotation Xrotation Yrotation
                  End Site
                  {
                    OFFSET -1.78271 -1.18214 1.43049
                  }
                }
              }
              JOINT rIndex1
              {
                OFFSET -7.75947 0.938293 5.60832
                CHANNELS 3 Zrotation Xrotation Yrotation
                JOINT rIndex2
                {
                  OFFSET -2.54057 -0.884171 1.56538
                  CHANNELS 3 Zrotation Xrotation Yrotation
                  End Site
                  {
                    OFFSET -1.62519 -0.234802 1.16502
                  }
                }
              }
              JOINT rMid1
              {
                OFFSET -8.24714 1.18213 3.41376
                CHANNELS 3 Zrotation Xrotation Yrotation
                JOINT rMid2
                {
                  OFFSET -3.10165 -0.590103 1.0647
                  CHANNELS 3 Zrotation Xrotation Yrotation
                  End Site
                  {
                    OFFSET -2.48547 -0.328903 0.83742
                  }
                }
              }
              JOINT rRing1
              {
                OFFSET -8.82822 0.546677 1.51678
                CHANNELS 3 Zrotation Xrotation Yrotation
                JOINT rRing2
                {
                  OFFSET -2.60934 -0.819778 -0.0198488
                  CHANNELS 3 Zrotation Xrotation Yrotation
                  End Site
                  {
                    OFFSET -2.33842 -0.294052 0.168128
                  }
                }
              }
              JOINT rPinky1
              {
                OFFSET -8.27202 -0.0477905 -0.4584
                CHANNELS 3 Zrotation Xrotation Yrotation
                JOINT rPinky2
                {
                  OFFSET -1.82734 -0.647385 -0.700984
                  CHANNELS 3 Zrotation Xrotation Yrotation
                  End Site
                  {
                    OFFSET -1.69225 -0.51767 -0.607171
                  }
                }
              }
            }
          }
        }
      }
      JOINT lCollar
      {
        OFFSET 2.68224 19.2634 -4.8768
        CHANNELS 3 Zrotation Xrotation Yrotation
        JOINT lShldr
        {
          OFFSET 8.77824 -1.95073 1.46304
          CHANNELS 3 Zrotation Xrotation Yrotation
          JOINT lForeArm
          {
            OFFSET 28.1742 -1.7115 0.48768
            CHANNELS 3 Zrotation Xrotation Yrotation
            JOINT lHand
            {
              OFFSET 22.5879 0.773209 7.07136
              CHANNELS 3 Zrotation Xrotation Yrotation
              JOINT lThumb1
              {
                OFFSET 1.2192 -0.487915 3.41376
                CHANNELS 3 Zrotation Xrotation Yrotation
                JOINT lThumb2
                {
                  OFFSET 3.37035 -0.52449 3.41376
                  CHANNELS 3 Zrotation Xrotation Yrotation
                  End Site
                  {
                    OFFSET 1.78271 -1.18214 1.43049
                  }
                }
              }
              JOINT lIndex1
              {
                OFFSET 7.75947 0.938293 5.60832
                CHANNELS 3 Zrotation Xrotation Yrotation
                JOINT lIndex2
                {
                  OFFSET 2.54057 -0.884171 1.56538
                  CHANNELS 3 Zrotation Xrotation Yrotation
                  End Site
                  {
                    OFFSET 1.62519 -0.234802 1.16502
                  }
                }
              }
              JOINT lMid1
              {
                OFFSET 8.24714 1.18213 3.41376
                CHANNELS 3 Zrotation Xrotation Yrotation
                JOINT lMid2
                {
                  OFFSET 3.10165 -0.590103 1.0647
                  CHANNELS 3 Zrotation Xrotation Yrotation
                  End Site
                  {
                    OFFSET 2.48547 -0.328903 0.83742
                  }
                }
              }
              JOINT lRing1
              {
                OFFSET 8.82822 0.546677 1.51678
                CHANNELS 3 Zrotation Xrotation Yrotation
                JOINT lRing2
                {
                  OFFSET 2.60934 -0.819778 -0.0198488
                  CHANNELS 3 Zrotation Xrotation Yrotation
                  End Site
                  {
                    OFFSET 2.33842 -0.294052 0.168128
                  }
                }
              }
              JOINT lPinky1
              {
                OFFSET 8.27202 -0.0477905 -0.4584
                CHANNELS 3 Zrotation Xrotation Yrotation
                JOINT lPinky2
                {
                  OFFSET 1.82734 -0.647385 -0.700984
                  CHANNELS 3 Zrotation Xrotation Yrotation
                  End Site
                  {
                    OFFSET 1.69225 -0.51767 -0.607171
                  }
                }
              }
            }
          }
        }
      }
    }
  }
  JOINT rButtock
  {
    OFFSET -8.77824 4.35084 1.2192
    CHANNELS 3 Zrotation Xrotation Yrotation
    JOINT rThigh
    {
      OFFSET 0 -1.70687 -2.19456
      CHANNELS 3 Zrotation Xrotation Yrotation
      JOINT rShin
      {
        OFFSET 0 -36.8199 0.73152
        CHANNELS 3 Zrotation Xrotation Yrotation
        JOINT rFoot
        {
          OFFSET 0.73152 -45.1104 -5.12064
          CHANNELS 3 Zrotation Xrotation Yrotation
          End Site
          {
            OFFSET -1.1221 -3.69964 12.103
          }
        }
      }
    }
  }
  JOINT lButtock
  {
    OFFSET 8.77824 4.35084 1.2192
    CHANNELS 3 Zrotation Xrotation Yrotation
    JOINT lThigh
    {
      OFFSET 0 -1.70687 -2.19456
      CHANNELS 3 Zrotation Xrotation Yrotation
      JOINT lShin
      {
        OFFSET 0 -36.8199 0.73152
        CHANNELS 3 Zrotation Xrotation Yrotation
        JOINT lFoot
        {
          OFFSET -0.73152 -45.1104 -5.12064
          CHANNELS 3 Zrotation Xrotation Yrotation
          End Site
          {
            OFFSET 1.1221 -3.69964 12.103
          }
        }
      }
    }
  }
}
MOTION
Frames:	9
Frame Time:	0.00833333
44.2074 79.9068 37.0704 -179.889 -50.1041 190.347 0.824636 -1.62669 -8.84076 -0.20821 -0.288004 -2.5451 4.33003 6.84514 9.91397 -12.7272 -4.63679 17.1344 -0.0 0.0 0.0 -0.0 0.0 0.0 -1.85683e-13 2.14688e-13 3.53042e-13 78.8493 57.1462 7.18596 -28.1675 -39.4157 82.881 -0.692564 22.9467 3.41122 -2.70163e-10 -3.05976e-10 2.25438e-11 -4.761e-10 -5.44619e-10 4.57626e-11 -2.70149e-10 -3.05972e-10 2.25565e-11 7.73091 5.47488 0.417314 -2.70156e-10 -3.05977e-10 2.25629e-11 2.90554 0.965183 0.102902 -2.70154e-10 -3.05973e-10 2.25501e-11 10.2786 0.731801 0.0259123 -2.70165e-10 -3.05971e-10 2.25629e-11 2.22167 -0.733487 -0.20892 -1.85658e-13 2.14688e-13 3.52992e-13 -59.9551 23.588 -33.9808 26.2188 -24.0093 -57.6924 19.8642 -72.676 26.7796 -2.28399e-10 -2.95691e-09 1.69245e-09 -4.98162e-10 -4.91357e-09 2.89165e-09 -2.28403e-10 -2.9569e-09 1.69245e-09 -7.73091 5.47488 -0.417314 -2.28398e-10 -2.95691e-09 1.69244e-09 -2.90554 0.965183 -0.102902 -2.28406e-10 -2.95691e-09 1.69244e-09 -10.2786 0.731801 -0.0259123 -2.28399e-10 -2.95691e-09 1.69243e-09 -2.22167 -0.733487 0.20892 -2.03217e-16 0.0 -3.88251e-19 -14.9941 -16.4208 -5.57733 -0.201173 36.1623 0.95847 -5.96237 -11.6121 -20.8401 2.03217e-16 0.0 3.88251e-19 13.2588 -35.1072 9.58419 0.183057 30.9197 -0.55079 1.89375 -8.0785 7.74534
44.7407 79.764 36.9081 -179.541 -51.7944 190.571 0.984817 -1.81683 -8.8169 -0.0119446 -0.232281 -2.54085 4.31514 6.6038 9.74748 -12.4967 -4.94448 16.8487 -0.0 0.0 0.0 -0.0 0.0 0.0 -1.19531e-13 1.5796e-13 9.2683e-14 76.7081 58.9126 10.8696 -28.2713 -38.6101 81.4647 -0.794987 24.3004 3.64224 -5.77058e-10 4.95603e-11 -2.12376e-10 -1.00374e-09 7.02107e-11 -3.51762e-10 -5.77044e-10 4.95636e-11 -2.12365e-10 7.73091 5.47488 0.417314 -5.77051e-10 4.95601e-11 -2.1236e-10 2.90554 0.965183 0.102902 -5.77049e-10 4.95632e-11 -2.1237e-10 10.2786 0.731801 0.0259123 -5.7706e-10 4.95652e-11 -2.12358e-10 2.22167 -0.733487 -0.20892 -1.19515e-13 1.57965e-13 9.25921e-14 -59.1212 21.0484 -35.7555 25.6921 -22.6869 -55.5603 20.5033 -73.0415 27.4482 -3.56192e-10 -1.6097e-09 7.35561e-10 -6.58235e-10 -2.66157e-09 1.2428e-09 -3.56193e-10 -1.60969e-09 7.3557e-10 -7.73091 5.47488 -0.417314 -3.56191e-10 -1.6097e-09 7.35558e-10 -2.90554 0.965183 -0.102902 -3.56198e-10 -1.6097e-09 7.35557e-10 -10.2786 0.731801 -0.0259123 -3.5619e-10 -1.6097e-09 7.35548e-10 -2.22167 -0.733487 0.20892 -2.03217e-16 0.0 -3.88251e-19 -14.2373 -16.3167 -5.56382 -0.199122 36.1157 0.966447 -5.94279 -12.031 -20.3436 2.03217e-16 0.0 3.88251e-19 13.8947 -36.0947 9.32878 0.188902 31.3366 -0.555854 1.77125 -7.85906 7.31729
45.2959 79.6367 36.639 -178.843 -53.2837 190.276 1.2069 -2.03508 -8.64646 0.183511 -0.170037 -2.49486 4.29775 6.34447 9.52201 -12.1855 -5.295 16.4536 -0.0 0.0 0.0 -0.0 0.0 0.0 -8.26171e-15 8.64413e-14 -2.95124e-13 74.1658 60.4504 14.9732 -28.3484 -37.7928 80.0617 -0.850712 25.092 3.77711 -1.27579e-09 -1.93985e-10 -2.24215e-10 -2.20339e-09 -3.4826e-10 -3.57597e-10 -1.27578e-09 -1.93984e-10 -2.2421e-10 7.73091 5.47488 0.417314 -1.27579e-09 -1.93986e-10 -2.24204e-10 2.90554 0.965183 0.102902 -1.27579e-09 -1.93984e-10 -2.24209e-10 10.2786 0.731801 0.0259123 -1.2758e-09 -1.93983e-10 -2.24199e-10 2.22167 -0.733487 -0.20892 -8.26287e-15 8.64517e-14 -2.95292e-13 -58.3911 18.6014 -37.5805 25.1373 -21.4101 -53.4177 20.9132 -73.2676 27.8764 -8.15078e-10 1.0399e-09 -7.87642e-10 -1.35082e-09 1.83467e-09 -1.39552e-09 -8.15074e-10 1.03989e-09 -7.87631e-10 -7.73091 5.47488 -0.417314 -8.15076e-10 1.03989e-09 -7.87644e-10 -2.90554 0.965183 -0.102902 -8.15081e-10 1.0399e-09 -7.87647e-10 -10.2786 0.731801 -0.0259123 -8.15073e-10 1.0399e-09 -7.87655e-10 -2.22167 -0.733487 0.20892 -2.03217e-16 0.0 -3.88251e-19 -13.2036 -16.073 -5.54153 -0.190314 35.736 0.973921 -6.17447 -12.7306 -20.3598 2.03217e-16 0.0 3.88251e-19 14.6847 -37.1301 9.14985 0.19541 31.7878 -0.563508 1.66103 -7.62642 6.90913
45.9477 79.556 36.1641 -177.888 -53.8199 189.592 1.45616 -2.24498 -8.37695 0.364084 -0.124877 -2.42072 4.28458 6.08044 9.27257 -11.8475 -5.63419 16.0123 -0.0 0.0 0.0 -0.0 0.0 0.0 1.05443e-13 1.84139e-14 -6.83227e-13 71.3152 61.6512 19.4262 -28.4009 -36.9651 78.6529 -0.872989 25.4861 3.84265 -1.98026e-09 -6.1295e-10 -1.81044e-10 -3.4127e-09 -1.06926e-09 -2.6883e-10 -1.98025e-09 -6.12952e-10 -1.81045e-10 7.73091 5.47488 0.417314 -1.98026e-09 -6.12953e-10 -1.81039e-10 2.90554 0.965183 0.102902 -1.98026e-09 -6.12952e-10 -1.81039e-10 10.2786 0.731801 0.0259123 -1.98027e-09 -6.12951e-10 -1.81031e-10 2.22167 -0.733487 -0.20892 1.05425e-13 1.84295e-14 -6.83475e-13 -57.7588 16.2273 -39.3752 24.5491 -20.1679 -51.3362 21.0391 -73.3368 28.0079 -1.34174e-09 3.8346e-09 -2.37088e-09 -2.15622e-09 6.58941e-09 -4.14049e-09 -1.34173e-09 3.83459e-09 -2.37087e-09 -7.73091 5.47488 -0.417314 -1.34174e-09 3.8346e-09 -2.37088e-09 -2.90554 0.965183 -0.102902 -1.34174e-09 3.8346e-09 -2.37089e-09 -10.2786 0.731801 -0.0259123 -1.34173e-09 3.83461e-09 -2.37089e-09 -2.22167 -0.733487 0.20892 -2.03217e-16 0.0 -3.88251e-19 -12.1268 -15.7896 -5.70026 -0.17917 35.2623 0.983189 -6.53622 -13.5359 -20.6572 2.03217e-16 0.0 3.88251e-19 15.5691 -38.1789 9.09089 0.202836 32.2916 -0.572865 1.5485 -7.41877 6.45465
46.5646 79.4152 35.8045 -177.095 -54.7224 189.225 1.69657 -2.40988 -8.05585 0.515892 -0.120416 -2.33199 4.2832 5.82524 9.03404 -11.5336 -5.90717 15.5875 -0.0 0.0 0.0 -0.0 0.0 0.0 1.789e-13 -2.7839e-14 -9.44476e-13 68.3477 62.4192 24.0655 -28.4296 -36.1257 77.22 -0.880989 25.6464 3.86903 -2.30436e-09 -7.83673e-10 -2.50933e-10 -3.96934e-09 -1.36203e-09 -3.82548e-10 -2.30435e-09 -7.83676e-10 -2.50939e-10 7.73091 5.47488 0.417314 -2.30435e-09 -7.83676e-10 -2.50933e-10 2.90554 0.965183 0.102902 -2.30435e-09 -7.83676e-10 -2.50929e-10 10.2786 0.731801 0.0259123 -2.30436e-09 -7.83676e-10 -2.50924e-10 2.22167 -0.733487 -0.20892 1.78874e-13 -2.78209e-14 -9.44774e-13 -57.2105 13.906 -41.0651 23.9304 -18.9678 -49.39 20.8399 -73.2305 27.8002 -1.67286e-09 5.61714e-09 -3.50787e-09 -2.65472e-09 9.61687e-09 -6.1093e-09 -1.67285e-09 5.61712e-09 -3.50786e-09 -7.73091 5.47488 -0.417314 -1.67286e-09 5.61713e-09 -3.50787e-09 -2.90554 0.965183 -0.102902 -1.67286e-09 5.61714e-09 -3.50788e-09 -10.2786 0.731801 -0.0259123 -1.67285e-09 5.61714e-09 -3.50788e-09 -2.22167 -0.733487 0.20892 -2.03217e-16 0.0 -3.88251e-19 -11.2377 -15.5656 -6.22878 -0.170199 34.9336 0.996509 -6.89717 -14.2749 -20.9991 2.03217e-16 0.0 3.88251e-19 16.4928 -39.2062 9.19798 0.211424 32.8663 -0.583039 1.41876 -7.27407 5.88751
47.1565 79.2356 35.3548 -176.159 -55.2501 188.629 1.92978 -2.50101 -7.66521 0.62272 -0.181351 -2.22342 4.31 5.57857 8.81505 -11.2518 -6.09588 15.1927 -0.0 0.0 0.0 -0.0 0.0 0.0 1.92579e-13 -4.06319e-14 -1.05582e-12 65.5908 62.7009 28.6439 -28.4295 -35.264 75.7904 -0.871536 25.5155 3.8465 -1.9578e-09 -5.47049e-10 -5.91655e-10 -3.37534e-09 -9.51946e-10 -9.75929e-10 -1.95779e-09 -5.47052e-10 -5.91664e-10 7.73091 5.47488 0.417314 -1.9578e-09 -5.47051e-10 -5.91658e-10 2.90554 0.965183 0.102902 -1.9578e-09 -5.47052e-10 -5.91654e-10 10.2786 0.731801 0.0259123 -1.9578e-09 -5.47051e-10 -5.9165e-10 2.22167 -0.733487 -0.20892 1.92562e-13 -4.06152e-14 -1.05613e-12 -56.737 11.5713 -42.6647 23.3034 -17.8517 -47.5189 20.3028 -72.9303 27.2387 -1.73756e-09 6.04435e-09 -4.17479e-09 -2.72743e-09 1.03297e-08 -7.25726e-09 -1.73755e-09 6.04433e-09 -4.17477e-09 -7.73091 5.47488 -0.417314 -1.73756e-09 6.04434e-09 -4.17479e-09 -2.90554 0.965183 -0.102902 -1.73756e-09 6.04435e-09 -4.17479e-09 -10.2786 0.731801 -0.0259123 -1.73755e-09 6.04435e-09 -4.1748e-09 -2.22167 -0.733487 0.20892 -2.03217e-16 0.0 -3.88251e-19 -10.6073 -15.416 -7.32773 -0.16408 34.7738 1.01461 -7.25549 -14.9188 -21.4096 2.03217e-16 0.0 3.88251e-19 17.5043 -40.2024 9.51618 0.221171 33.5106 -0.593915 1.26087 -7.19785 5.16239
47.6286 79.023 35.0726 -175.407 -56.4806 188.118 2.17074 -2.54404 -7.18984 0.696593 -0.288973 -2.09075 4.35622 5.33454 8.59719 -10.9748 -6.23013 14.7955 -0.0 0.0 0.0 -0.0 0.0 0.0 1.71959e-13 -3.19858e-14 -1.08145e-12 63.1554 62.5706 33.0332 -28.4 -34.376 74.3627 -0.836491 25.0397 3.7645 -1.20896e-09 -1.44409e-10 -1.07592e-09 -2.09108e-09 -2.55338e-10 -1.82454e-09 -1.20895e-09 -1.44409e-10 -1.07593e-09 7.73091 5.47488 0.417314 -1.20896e-09 -1.44408e-10 -1.07593e-09 2.90554 0.965183 0.102902 -1.20895e-09 -1.44408e-10 -1.07592e-09 10.2786 0.731801 0.0259123 -1.20896e-09 -1.44408e-10 -1.07592e-09 2.22167 -0.733487 -0.20892 1.71962e-13 -3.19729e-14 -1.08175e-12 -56.3336 9.26808 -44.2265 22.6863 -16.8341 -45.6815 19.4866 -72.4477 26.3835 -1.67649e-09 5.74497e-09 -4.60459e-09 -2.60052e-09 9.80615e-09 -7.99162e-09 -1.67649e-09 5.74496e-09 -4.60457e-09 -7.73091 5.47488 -0.417314 -1.67649e-09 5.74496e-09 -4.60459e-09 -2.90554 0.965183 -0.102902 -1.6765e-09 5.74497e-09 -4.60459e-09 -10.2786 0.731801 -0.0259123 -1.67648e-09 5.74497e-09 -4.6046e-09 -2.22167 -0.733487 0.20892 -2.03217e-16 0.0 -3.88251e-19 -10.1057 -15.284 -8.84507 -0.158599 34.6688 1.03623 -7.68027 -15.5487 -21.9884 2.03217e-16 0.0 3.88251e-19 18.6325 -41.1831 10.0231 0.232116 34.2167 -0.606047 1.08327 -7.17082 4.32357
48.0382 78.8009 34.7653 -174.791 -57.6819 187.61 2.40283 -2.58398 -6.68143 0.765882 -0.401774 -1.94895 4.3924 5.09848 8.37464 -10.6992 -6.32644 14.3894 -0.0 0.0 0.0 -0.0 0.0 0.0 1.41876e-13 -1.91772e-14 -1.02509e-12 60.9232 62.1317 37.233 -28.3444 -33.4623 72.8784 -0.790039 24.3889 3.65341 -5.09675e-10 2.47261e-10 -1.44421e-09 -8.91652e-10 4.2216e-10 -2.47306e-09 -5.09672e-10 2.47264e-10 -1.44422e-09 7.73091 5.47488 0.417314 -5.09674e-10 2.47265e-10 -1.44422e-09 2.90554 0.965183 0.102902 -5.09668e-10 2.47265e-10 -1.44421e-09 10.2786 0.731801 0.0259123 -5.09674e-10 2.47265e-10 -1.44421e-09 2.22167 -0.733487 -0.20892 1.41897e-13 -1.9169e-14 -1.02536e-12 -55.9747 7.1273 -45.7235 22.0888 -15.9045 -43.9833 18.4765 -71.807 25.3221 -1.54365e-09 5.01954e-09 -4.67616e-09 -2.37187e-09 8.5592e-09 -8.10753e-09 -1.54365e-09 5.01953e-09 -4.67615e-09 -7.73091 5.47488 -0.417314 -1.54365e-09 5.01954e-09 -4.67616e-09 -2.90554 0.965183 -0.102902 -1.54366e-09 5.01954e-09 -4.67616e-09 -10.2786 0.731801 -0.0259123 -1.54364e-09 5.01954e-09 -4.67617e-09 -2.22167 -0.733487 0.20892 -2.03217e-16 0.0 -3.88251e-19 -9.66477 -15.1646 -10.4412 -0.15413 34.6503 1.0607 -8.1294 -16.1643 -22.6056 2.03217e-16 0.0 3.88251e-19 19.7928 -42.1505 10.6632 0.244576 34.9935 -0.61957 0.898674 -7.1938 3.43891
48.4562 78.5275 34.4343 -174.043 -58.5622 187.097 2.61075 -2.66606 -6.19162 0.858471 -0.478234 -1.81303 4.38905 4.8757 8.14156 -10.4217 -6.40145 13.968 -0.0 0.0 0.0 -0.0 0.0 0.0 1.27163e-13 -1.94826e-14 -8.90456e-13 58.7074 61.473 41.3041 -28.2619 -32.5132 71.2818 -0.744596 23.733 3.54255 -3.11805e-10 4.50971e-10 -1.437e-09 -5.52169e-10 7.74914e-10 -2.46615e-09 -3.11803e-10 4.50976e-10 -1.43701e-09 7.73091 5.47488 0.417314 -3.11804e-10 4.50977e-10 -1.43701e-09 2.90554 0.965183 0.102902 -3.11797e-10 4.50977e-10 -1.437e-09 10.2786 0.731801 0.0259123 -3.11802e-10 4.50978e-10 -1.437e-09 2.22167 -0.733487 -0.20892 1.2719e-13 -1.94784e-14 -8.90704e-13 -55.6181 5.26035 -47.1112 21.5278 -15.0639 -42.5318 17.3527 -71.0328 24.137 -1.39302e-09 4.16861e-09 -4.2684e-09 -2.13933e-09 7.10168e-09 -7.40012e-09 -1.39302e-09 4.16861e-09 -4.26839e-09 -7.73091 5.47488 -0.417314 -1.39301e-09 4.16861e-09 -4.2684e-09 -2.90554 0.965183 -0.102902 -1.39303e-09 4.16861e-09 -4.2684e-09 -10.2786 0.731801 -0.0259123 -1.39301e-09 4.16861e-09 -4.26841e-09 -2.22167 -0.733487 0.20892 -2.03217e-16 0.0 -3.88251e-19 -9.21848 -15.0615 -11.7773 -0.151148 34.7504 1.08741 -8.55448 -16.7687 -23.1297 2.03217e-16 0.0 3.88251e-19 20.895 -43.1082 11.3777 0.258894 35.8496 -0.634651 0.719471 -7.26808 2.57626
